#N canvas 55 32 904 849 12;
#X obj 67 462 tabread4~ grainArray;
#X obj 67 412 line~;
#X floatatom 63 119 10 0 0 0 - - - 0;
#X msg 67 373 \$1 \, \$2 \$3;
#X obj 65 202 t f f;
#X obj 66 294 pack f f f;
#X text 205 85 start point in samples;
#X obj 105 253 +;
#X floatatom 159 229 10 0 0 0 - - - 0;
#X text 237 225 grain dur ms;
#X obj 161 266 * 44.1;
#X floatatom 163 294 10 0 0 0 - - - 0;
#X msg 354 418 0 \, 455208 10000;
#X text 195 366 Start (samples) end (samples) time(Milliseconds;
#X obj 67 89 hsl 128 15 0 455208 0 0 empty empty empty -2 -8 0 10 #fcfcfc
#000000 #000000 0 1;
#X obj 368 152 loadbang;
#X obj 368 176 samplerate~;
#X floatatom 368 201 5 0 0 0 - - - 0;
#X obj 368 225 / 1000;
#X floatatom 368 249 5 0 0 0 - - - 0;
#X obj 64 36 inlet;
#X obj 66 580 outlet~;
#X text 10 5 Grain Subpatch;
#X obj 162 191 r grain_dur;
#X obj 542 105 t b b;
#X msg 610 135 1;
#X msg 546 165 0;
#X obj 549 238 line~;
#X obj 601 37 r grain_dur;
#X floatatom 676 97 5 0 0 0 - - - 0;
#X obj 66 63 t f b, f 72;
#X obj 69 531 *~, f 70;
#X obj 545 135 del 100;
#X obj 601 78 - 100;
#X obj 552 203 pack f 100;
#X floatatom 163 326 5 0 0 1 grain\ duration\ in\ samples - graindursamples
0;
#X text 675 155 volume envelope;
#X connect 0 0 31 0;
#X connect 1 0 0 0;
#X connect 2 0 4 0;
#X connect 3 0 1 0;
#X connect 4 0 5 0;
#X connect 4 1 7 0;
#X connect 5 0 3 0;
#X connect 7 0 5 1;
#X connect 8 0 10 0;
#X connect 8 0 5 2;
#X connect 10 0 11 0;
#X connect 11 0 7 1;
#X connect 11 0 35 0;
#X connect 14 0 2 0;
#X connect 15 0 16 0;
#X connect 16 0 17 0;
#X connect 17 0 18 0;
#X connect 18 0 19 0;
#X connect 19 0 10 1;
#X connect 20 0 30 0;
#X connect 23 0 8 0;
#X connect 24 0 32 0;
#X connect 24 1 25 0;
#X connect 25 0 34 0;
#X connect 26 0 34 0;
#X connect 27 0 31 1;
#X connect 28 0 33 0;
#X connect 30 0 14 0;
#X connect 30 1 24 0;
#X connect 31 0 21 0;
#X connect 32 0 26 0;
#X connect 33 0 29 0;
#X connect 33 0 32 1;
#X connect 34 0 27 0;
